<?xml version="1.0" encoding="UTF-8"?>
<!DOCTYPE svg PUBLIC "-//W3C//DTD SVG 1.1//EN" "http://www.w3.org/Graphics/SVG/1.1/DTD/svg11.dtd">
<svg version="1.1" xmlns="http://www.w3.org/2000/svg" xmlns:xlink="http://www.w3.org/1999/xlink" x="0" y="0" width="500" height="500" viewBox="0, 0, 500, 500">
  <g id="Background">
    <rect x="0" y="0" width="500" height="500" fill="#000000" fill-opacity="0"/>
  </g>
  <g id="Layer_1">
    <g id="Florida_logo">
      <path d="M232.29,91.856 C257.706,91.945 282.77,98.815 304.519,112.022 C312.238,116.709 312.31,116.788 316.004,119.835 L397.456,103.216 L414.593,99.719 L401.54,111.36 L350.212,157.136 C353.28,161.677 351.075,158.29 356.182,167.692 L366.776,164.642 L389.517,158.362 L371.037,172.854 L361.854,180.234 C368.778,196.303 371.145,213.802 371.584,231.149 C371.584,308.079 309.22,370.443 232.29,370.443 C207.925,370.526 185.65,364.174 164.366,352.615 L112.016,390.098 L85.407,408.145 L105.642,383.243 L143.24,338.059 C110.551,311.61 94.045,272.621 92.996,231.149 C92.997,154.22 155.361,91.856 232.29,91.856 L232.29,91.856 z" fill="#FFFFFF"/>
      <path d="M232.29,365.725 C157.966,365.725 97.715,305.473 97.715,231.149 C97.715,156.825 157.966,96.574 232.29,96.574 C306.614,96.574 366.866,156.825 366.866,231.149 C366.866,305.473 306.614,365.725 232.29,365.725 z" fill="#013F7F"/>
      <path d="M232.29,353.174 C164.543,353.174 109.623,298.254 109.623,230.507 C109.623,162.759 164.543,107.839 232.29,107.839 C300.038,107.839 354.958,162.759 354.958,230.507 C354.958,298.254 300.038,353.174 232.29,353.174 z" fill="#FFFFFF"/>
      <path d="M232.29,347.557 C167.645,347.557 115.24,295.152 115.24,230.507 C115.24,165.861 167.645,113.456 232.29,113.456 C296.935,113.456 349.341,165.861 349.341,230.507 C349.341,295.152 296.935,347.557 232.29,347.557 z" fill="#B2B7BB"/>
      <path d="M175.304,148.091 L141.471,147.983 L132.708,154.555 L125.547,169.553 C125.547,169.553 158.236,165.257 166.661,194.746 L187.725,194.746 L197.33,186.826 L198.847,180.254 L203.733,180.254 L212.864,184.39 C212.864,184.39 215.476,185.907 215.687,187.466 C215.897,189.024 253.58,283.051 253.58,283.051 L259.133,297.825 L266.969,297.825 L268.485,312.317 C268.485,312.317 284.661,312.7 286.599,325.507 C287.11,329.359 287.11,329.38 287.11,329.38 C287.11,329.38 291.638,328.264 293.008,329.338 C294.887,330.812 297.621,334.373 297.621,334.373 L302.835,336.833 L311.429,333.295 L317.833,325.038 L323.394,315.77 L323.394,312.736 L323.266,288.825 L300.243,232.022 L306.141,231.979 L302.029,221.427 L239.679,160.716 L182.712,160.822 L175.304,148.091 z" fill="#013F7F"/>
      <path d="M260.478,135.98 L398.4,107.839 L311.294,185.522 L368.081,169.177 L263.277,253.408 L312.198,240.964 L109.27,386.262 L171.282,311.735 L142.299,318.643 L197.486,261.603 L133.536,280.897 L260.478,135.98 z" fill="#000000"/>
      <path d="M341.111,124.691 L341.217,125.679 L345.435,128.409 L271.433,204.178 L297.046,202.83 L230.177,269.897 L248.713,270.234 L223.773,293.825 L234.544,289.871 L114.653,381.504 L196.276,294.58 L161.898,305.354 L216.515,248.373 L150.497,267.498 L265.815,140.467 L341.111,124.691 z" fill="#FFFFFF"/>
      <path d="M370.22,118.593 L281.239,201.771 L323.876,190.785 L238.44,266.898 L276.949,257.462 L112.341,383.563 L238.049,274.953 L210.667,281.188 L278.474,211.076 L243.255,221.271 L340.872,124.917 L341.094,124.695 L370.212,118.594 L370.22,118.593 L370.22,118.593 z" fill="#013F7F"/>
    </g>
  </g>
</svg>
